<svg xmlns="http://www.w3.org/2000/svg" viewBox="0 0 800 520" font-family="Segoe UI, Arial, sans-serif">
  <desc>Observed in the author's single environment, single operator, N undisclosed. All metrics shown are [observed: single environment] unless individually labeled [design target] or [illustrative]. Verify in your own environment.</desc>
  <rect width="800" height="520" fill="#0f172a" rx="12"/>

  <rect x="0" y="0" width="800" height="40" fill="#1e293b" rx="12"/>
  <rect x="0" y="20" width="800" height="20" fill="#1e293b"/>
  <circle cx="20" cy="20" r="5" fill="#ef4444"/>
  <circle cx="38" cy="20" r="5" fill="#facc15"/>
  <circle cx="56" cy="20" r="5" fill="#22c55e"/>
  <text x="400" y="25" text-anchor="middle" fill="#94a3b8" font-size="11">n8n-AI Dashboard — System Overview (observed values)</text>
  <text x="400" y="36" text-anchor="middle" fill="#64748b" font-size="7">In the author's environment</text>

  <rect x="0" y="40" width="160" height="480" fill="#1e293b"/>
  <text x="20" y="66" fill="#60a5fa" font-size="13" font-weight="600">n8n-AI</text>
  <text x="20" y="90" fill="#e2e8f0" font-size="10">Overview</text>
  <text x="20" y="108" fill="#94a3b8" font-size="10">Health Check</text>
  <text x="20" y="126" fill="#94a3b8" font-size="10">Monitoring Agent</text>
  <text x="20" y="144" fill="#94a3b8" font-size="10">Resource Monitor</text>
  <text x="20" y="162" fill="#94a3b8" font-size="10">Monitoring Agent Service</text>
  <text x="20" y="180" fill="#94a3b8" font-size="10">Supervisor</text>
  <text x="20" y="198" fill="#94a3b8" font-size="10">Quality Check</text>
  <text x="20" y="216" fill="#94a3b8" font-size="10">Pattern Detection</text>
  <text x="20" y="234" fill="#94a3b8" font-size="10">User Judgment</text>
  <text x="20" y="252" fill="#94a3b8" font-size="10">Errors</text>
  <text x="20" y="270" fill="#94a3b8" font-size="10">Notifications</text>
  <text x="20" y="288" fill="#94a3b8" font-size="10">Directives</text>
  <text x="20" y="306" fill="#94a3b8" font-size="10">Learning</text>
  <text x="20" y="324" fill="#94a3b8" font-size="10">Glossary</text>
  <text x="20" y="342" fill="#94a3b8" font-size="10">Token Monitor</text>
  <text x="20" y="360" fill="#94a3b8" font-size="10">Claude Code</text>
  <text x="20" y="378" fill="#94a3b8" font-size="10">Features</text>
  <text x="20" y="396" fill="#94a3b8" font-size="10">Pipeline</text>
  <text x="20" y="414" fill="#94a3b8" font-size="10">Settings</text>
  <text x="80" y="460" text-anchor="middle" fill="#475569" font-size="9">29 pages</text>
  <text x="80" y="474" text-anchor="middle" fill="#475569" font-size="9">all 200 OK</text>

  <rect x="176" y="52" width="145" height="68" fill="#1e293b" rx="8"/>
  <text x="248" y="72" text-anchor="middle" fill="#94a3b8" font-size="10">CC Generations</text>
  <text x="248" y="98" text-anchor="middle" fill="#e2e8f0" font-size="24" font-weight="700">12+ [observed: single environment]</text>

  <rect x="332" y="52" width="145" height="68" fill="#1e293b" rx="8"/>
  <text x="404" y="72" text-anchor="middle" fill="#94a3b8" font-size="10">Failure Modes</text>
  <text x="404" y="98" text-anchor="middle" fill="#e2e8f0" font-size="24" font-weight="700">132</text>
  <text x="404" y="110" text-anchor="middle" fill="#94a3b8" font-size="7">[observed: single environment]</text>

  <rect x="488" y="52" width="145" height="68" fill="#1e293b" rx="8"/>
  <text x="560" y="72" text-anchor="middle" fill="#94a3b8" font-size="10">Uptime</text>
  <text x="560" y="98" text-anchor="middle" fill="#22c55e" font-size="24" font-weight="700">22 days</text>
  <text x="560" y="110" text-anchor="middle" fill="#94a3b8" font-size="7">[observed: single environment]</text>

  <rect x="644" y="52" width="145" height="68" fill="#1e293b" rx="8"/>
  <text x="716" y="72" text-anchor="middle" fill="#94a3b8" font-size="10">Crashes</text>
  <text x="716" y="98" text-anchor="middle" fill="#22c55e" font-size="24" font-weight="700">0</text>
  <text x="716" y="110" text-anchor="middle" fill="#94a3b8" font-size="7">[observed: single environment]</text>

  <rect x="176" y="132" width="300" height="160" fill="#1e293b" rx="8"/>
  <text x="326" y="154" text-anchor="middle" fill="#e2e8f0" font-size="12" font-weight="500">Three-Layer Separation Status</text>

  <rect x="192" y="166" width="268" height="36" fill="#22c55e" fill-opacity="0.1" rx="6" stroke="#22c55e" stroke-width="0.5"/>
  <circle cx="208" cy="184" r="5" fill="#22c55e"/>
  <text x="220" y="188" fill="#e2e8f0" font-size="11">Supervisor</text>
  <text x="444" y="188" text-anchor="end" fill="#22c55e" font-size="10">RUNNING</text>

  <rect x="192" y="208" width="268" height="36" fill="#60a5fa" fill-opacity="0.1" rx="6" stroke="#60a5fa" stroke-width="0.5"/>
  <circle cx="208" cy="226" r="5" fill="#60a5fa"/>
  <text x="220" y="230" fill="#e2e8f0" font-size="11">Relay</text>
  <text x="444" y="230" text-anchor="end" fill="#60a5fa" font-size="10">RUNNING</text>

  <rect x="192" y="250" width="268" height="36" fill="#f59e0b" fill-opacity="0.1" rx="6" stroke="#f59e0b" stroke-width="0.5"/>
  <circle cx="208" cy="268" r="5" fill="#f59e0b"/>
  <text x="220" y="272" fill="#e2e8f0" font-size="11">Worker</text>
  <text x="444" y="272" text-anchor="end" fill="#f59e0b" font-size="10">RUNNING</text>

  <rect x="488" y="132" width="300" height="160" fill="#1e293b" rx="8"/>
  <text x="638" y="154" text-anchor="middle" fill="#e2e8f0" font-size="12" font-weight="500">External Monitoring Detection (observed)</text>

  <text x="510" y="188" fill="#94a3b8" font-size="10">EVIDENCE_DROPOUT</text>
  <rect x="640" y="174" width="120" height="14" fill="#334155" rx="3"/>
  <rect x="640" y="174" width="120" height="14" fill="#22c55e" rx="3"/>
  <text x="770" y="186" text-anchor="end" fill="#ffffff" font-size="11" font-weight="600">~100% [observed: single environment]</text>

  <text x="510" y="220" fill="#94a3b8" font-size="10">GENERIC_RESPONSE</text>
  <rect x="640" y="206" width="120" height="14" fill="#334155" rx="3"/>
  <rect x="640" y="206" width="90" height="14" fill="#60a5fa" rx="3"/>
  <text x="770" y="218" text-anchor="end" fill="#ffffff" font-size="11" font-weight="600">~75% [observed: single environment]</text>

  <text x="510" y="252" fill="#94a3b8" font-size="10">INCOMPLETE_CLAIM</text>
  <rect x="640" y="238" width="120" height="14" fill="#334155" rx="3"/>
  <rect x="640" y="238" width="76" height="14" fill="#f59e0b" rx="3"/>
  <text x="770" y="250" text-anchor="end" fill="#ffffff" font-size="11" font-weight="600">~63% [observed: single environment]</text>

  <text x="638" y="280" text-anchor="middle" fill="#475569" font-size="9">N-counts: see metrics.md</text>

  <rect x="176" y="304" width="612" height="80" fill="#1e293b" rx="8"/>
  <text x="482" y="324" text-anchor="middle" fill="#e2e8f0" font-size="12" font-weight="500">PostgreSQL Live Data Statistics (observed)</text>

  <text x="220" y="350" fill="#94a3b8" font-size="10">Conversations</text>
  <text x="220" y="368" fill="#e2e8f0" font-size="13" font-weight="600">50,831</text>
  <text x="220" y="378" fill="#94a3b8" font-size="7">[observed: single environment]</text>
  <text x="220" y="388" fill="#475569" font-size="8">(cc01: 28,274 + win: 22,557)</text>

  <text x="350" y="350" fill="#94a3b8" font-size="10">Behavior Log</text>
  <text x="350" y="368" fill="#e2e8f0" font-size="13" font-weight="600">11,265</text>
  <text x="350" y="378" fill="#94a3b8" font-size="7">[observed: single environment]</text>

  <text x="480" y="350" fill="#94a3b8" font-size="10">User Directives</text>
  <text x="480" y="368" fill="#e2e8f0" font-size="13" font-weight="600">2,891</text>
  <text x="480" y="378" fill="#94a3b8" font-size="7">[observed: single environment]</text>

  <text x="610" y="350" fill="#94a3b8" font-size="10">Audit Log</text>
  <text x="610" y="368" fill="#e2e8f0" font-size="13" font-weight="600">8,397</text>
  <text x="610" y="378" fill="#94a3b8" font-size="7">[observed: single environment]</text>

  <text x="740" y="350" fill="#94a3b8" font-size="10">Knowledge</text>
  <text x="740" y="368" fill="#e2e8f0" font-size="13" font-weight="600">293</text>
  <text x="740" y="378" fill="#94a3b8" font-size="7">[observed: single environment]</text>

  <text x="482" y="410" text-anchor="middle" fill="#64748b" font-size="10">In the author's environment, 29 pages returned 200 OK [observed: single environment]. 13 containers running [observed: single environment]. All data persisted in PostgreSQL.</text>
  <text x="482" y="426" text-anchor="middle" fill="#475569" font-size="9">This is not a screenshot. It is a structural SVG with real observed values from the running system.</text>

  <rect x="176" y="440" width="612" height="24" fill="#22c55e" fill-opacity="0.05" rx="4"/>
  <text x="482" y="456" text-anchor="middle" fill="#22c55e" font-size="9">All values observed in the author's environment. Verify in yours.</text>
</svg>
