<svg xmlns="http://www.w3.org/2000/svg" viewBox="0 0 680 320" font-family="Segoe UI, Arial, sans-serif">
  <rect width="680" height="320" fill="#0f172a" rx="12"/>

  <text x="340" y="30" text-anchor="middle" fill="#e2e8f0" font-size="15" font-weight="600">Single-Session Continuity Evidence</text>
  <text x="340" y="48" text-anchor="middle" fill="#94a3b8" font-size="10">Server-side timestamps. Reproducible via DB re-query.</text>

  <rect x="290" y="56" width="100" height="22" fill="#22c55e" fill-opacity="0.15" rx="11" stroke="#22c55e" stroke-width="1"/>
  <text x="340" y="71" text-anchor="middle" fill="#22c55e" font-size="11" font-weight="600">STABLE</text>

  <rect x="20" y="90" width="150" height="72" fill="#1e293b" rx="8"/>
  <text x="95" y="112" text-anchor="middle" fill="#94a3b8" font-size="10">Observation Period</text>
  <text x="95" y="132" text-anchor="middle" fill="#e2e8f0" font-size="13" font-weight="600">22 days</text>
  <text x="95" y="150" text-anchor="middle" fill="#64748b" font-size="9">2026-03-07 to 03-29</text>

  <rect x="180" y="90" width="150" height="72" fill="#1e293b" rx="8"/>
  <text x="255" y="112" text-anchor="middle" fill="#94a3b8" font-size="10">Crashes</text>
  <text x="255" y="136" text-anchor="middle" fill="#22c55e" font-size="20" font-weight="700">0</text>

  <rect x="340" y="90" width="150" height="72" fill="#1e293b" rx="8"/>
  <text x="415" y="112" text-anchor="middle" fill="#94a3b8" font-size="10">Active Days</text>
  <text x="415" y="136" text-anchor="middle" fill="#e2e8f0" font-size="20" font-weight="600">12</text>

  <rect x="500" y="90" width="160" height="72" fill="#1e293b" rx="8"/>
  <text x="580" y="112" text-anchor="middle" fill="#94a3b8" font-size="10">Total Messages</text>
  <text x="580" y="136" text-anchor="middle" fill="#e2e8f0" font-size="20" font-weight="600">22,557</text>

  <rect x="20" y="174" width="210" height="72" fill="#1e293b" rx="8"/>
  <text x="125" y="196" text-anchor="middle" fill="#94a3b8" font-size="10">JSONL Size (full session)</text>
  <text x="125" y="220" text-anchor="middle" fill="#f97316" font-size="18" font-weight="600">170 MB</text>
  <text x="125" y="236" text-anchor="middle" fill="#64748b" font-size="9">38,388 lines</text>

  <rect x="240" y="174" width="60" height="72" fill="none"/>
  <text x="270" y="216" text-anchor="middle" fill="#facc15" font-size="22">&#x2192;</text>

  <rect x="310" y="174" width="210" height="72" fill="#1e293b" rx="8"/>
  <text x="415" y="196" text-anchor="middle" fill="#94a3b8" font-size="10">After DB externalization (observed)</text>
  <text x="415" y="220" text-anchor="middle" fill="#22c55e" font-size="18" font-weight="600">5.7 MB</text>
  <text x="415" y="236" text-anchor="middle" fill="#64748b" font-size="9">22,557 structured records</text>

  <rect x="530" y="174" width="130" height="72" fill="#22c55e" fill-opacity="0.1" rx="8" stroke="#22c55e" stroke-width="1"/>
  <text x="595" y="196" text-anchor="middle" fill="#94a3b8" font-size="10">Reduction (observed)</text>
  <text x="595" y="222" text-anchor="middle" fill="#22c55e" font-size="22" font-weight="700">97% [observed]</text>

  <text x="340" y="272" text-anchor="middle" fill="#475569" font-size="9">session: 0a78cdcd-f5a2-4ad1-83d0-ace8257f48bf</text>

  <text x="340" y="292" text-anchor="middle" fill="#64748b" font-size="10">In the observed environment, PostgreSQL externalization reduced context-resident data by 97% [observed].</text>
  <text x="340" y="308" text-anchor="middle" fill="#475569" font-size="9">Observed in author's environment. Verify in yours.</text>
</svg>
